<svg width="25" height="25" viewBox="0 0 25 25" fill="none" xmlns="http://www.w3.org/2000/svg">
<path d="M21.7084 4.80209C21.1763 4.26981 20.5446 3.84756 19.8494 3.55947C19.1541 3.27139 18.4089 3.12311 17.6563 3.12311C16.9037 3.12311 16.1585 3.27139 15.4632 3.55947C14.7679 3.84756 14.1362 4.26981 13.6042 4.80209L12.5 5.90626L11.3959 4.80209C10.3212 3.72741 8.86362 3.12366 7.34379 3.12366C5.82397 3.12366 4.36639 3.72741 3.29171 4.80209C2.21703 5.87677 1.61328 7.33435 1.61328 8.85418C1.61328 10.374 2.21703 11.8316 3.29171 12.9063L4.39588 14.0104L12.5 22.1146L20.6042 14.0104L21.7084 12.9063C22.2407 12.3742 22.6629 11.7425 22.951 11.0473C23.2391 10.352 23.3874 9.60677 23.3874 8.85418C23.3874 8.10158 23.2391 7.35637 22.951 6.6611C22.6629 5.96583 22.2407 5.33413 21.7084 4.80209V4.80209Z" stroke="#25282B" stroke-width="2" stroke-linecap="round" stroke-linejoin="round"/>
</svg>
