<svg width="20" height="22" viewBox="0 0 20 22" fill="none" xmlns="http://www.w3.org/2000/svg">
<g clip-path="url(#clip0)">
<path d="M7.49935 19.9277C7.95958 19.9277 8.33268 19.5222 8.33268 19.0219C8.33268 18.5217 7.95958 18.1161 7.49935 18.1161C7.03911 18.1161 6.66602 18.5217 6.66602 19.0219C6.66602 19.5222 7.03911 19.9277 7.49935 19.9277Z" stroke="#353535" stroke-width="2" stroke-linecap="round" stroke-linejoin="round"/>
<path d="M16.6673 19.9277C17.1275 19.9277 17.5006 19.5222 17.5006 19.0219C17.5006 18.5217 17.1275 18.1161 16.6673 18.1161C16.2071 18.1161 15.834 18.5217 15.834 19.0219C15.834 19.5222 16.2071 19.9277 16.6673 19.9277Z" stroke="#353535" stroke-width="2" stroke-linecap="round" stroke-linejoin="round"/>
<path d="M0.833984 0.905579H4.16732L6.40065 13.0342C6.47685 13.4512 6.68557 13.8258 6.99027 14.0924C7.29497 14.3591 7.67623 14.5007 8.06732 14.4925H16.1673C16.5584 14.5007 16.9397 14.3591 17.2444 14.0924C17.5491 13.8258 17.7578 13.4512 17.834 13.0342L19.1673 5.43456H5.00065" stroke="#353535" stroke-width="2" stroke-linecap="round" stroke-linejoin="round"/>
</g>
<defs>
<clipPath id="clip0">
<rect width="20" height="21.7391" fill="white"/>
</clipPath>
</defs>
</svg>
