<svg width="42" height="42" viewBox="0 0 42 42" fill="none" xmlns="http://www.w3.org/2000/svg">
<path d="M15.75 38.5005C16.7165 38.5005 17.5 37.717 17.5 36.7505C17.5 35.784 16.7165 35.0005 15.75 35.0005C14.7835 35.0005 14 35.784 14 36.7505C14 37.717 14.7835 38.5005 15.75 38.5005Z" stroke="#25282B" stroke-width="2" stroke-linecap="round" stroke-linejoin="round"/>
<path d="M35 38.5005C35.9665 38.5005 36.75 37.717 36.75 36.7505C36.75 35.784 35.9665 35.0005 35 35.0005C34.0335 35.0005 33.25 35.784 33.25 36.7505C33.25 37.717 34.0335 38.5005 35 38.5005Z" stroke="#25282B" stroke-width="2" stroke-linecap="round" stroke-linejoin="round"/>
<path d="M1.75 1.74951H8.75L13.44 25.182C13.6 25.9877 14.0383 26.7114 14.6782 27.2265C15.3181 27.7416 16.1187 28.0153 16.94 27.9995H33.95C34.7713 28.0153 35.5719 27.7416 36.2118 27.2265C36.8517 26.7114 37.29 25.9877 37.45 25.182L40.25 10.4995H10.5" stroke="#25282B" stroke-width="2" stroke-linecap="round" stroke-linejoin="round"/>
</svg>
