<svg width="18" height="18" viewBox="0 0 18 18" fill="none" xmlns="http://www.w3.org/2000/svg">
<g clip-path="url(#clip0)">
<path d="M6.75 16.5004C7.16421 16.5004 7.5 16.1646 7.5 15.7504C7.5 15.3362 7.16421 15.0004 6.75 15.0004C6.33579 15.0004 6 15.3362 6 15.7504C6 16.1646 6.33579 16.5004 6.75 16.5004Z" stroke="#FFC702" stroke-width="2" stroke-linecap="round" stroke-linejoin="round"/>
<path d="M15 16.5004C15.4142 16.5004 15.75 16.1646 15.75 15.7504C15.75 15.3362 15.4142 15.0004 15 15.0004C14.5858 15.0004 14.25 15.3362 14.25 15.7504C14.25 16.1646 14.5858 16.5004 15 16.5004Z" stroke="#FFC702" stroke-width="2" stroke-linecap="round" stroke-linejoin="round"/>
<path d="M0.75 0.749634H3.75L5.76 10.7921C5.82858 11.1374 6.01643 11.4476 6.29066 11.6684C6.56489 11.8891 6.90802 12.0064 7.26 11.9996H14.55C14.902 12.0064 15.2451 11.8891 15.5193 11.6684C15.7936 11.4476 15.9814 11.1374 16.05 10.7921L17.25 4.49963H4.5" stroke="#FFC702" stroke-width="2" stroke-linecap="round" stroke-linejoin="round"/>
</g>
<defs>
<clipPath id="clip0">
<path d="M0 0H18V18H0V0Z" fill="white"/>
</clipPath>
</defs>
</svg>
