<svg width="38" height="38" viewBox="0 0 38 38" fill="none" xmlns="http://www.w3.org/2000/svg">
<path d="M28.1042 1.58325C23.8892 1.58325 20.4079 5.49829 19 7.34604C17.5921 5.49829 14.1108 1.58325 9.89581 1.58325C4.43925 1.58325 0 6.59999 0 12.7656C0 16.1294 1.3352 19.2643 3.67227 21.4098C3.70626 21.4685 3.74805 21.5226 3.79673 21.5713L18.4411 36.1854C18.5957 36.3393 18.7975 36.4166 19 36.4166C19.2025 36.4166 19.4051 36.3393 19.5598 36.1847L34.6911 21.0588L34.8473 20.9072C34.971 20.7905 35.0931 20.6722 35.2299 20.5207C35.2872 20.4643 35.3343 20.4008 35.3707 20.332C37.0677 18.2539 38 15.5735 38 12.7656C38 6.59999 33.5608 1.58325 28.1042 1.58325ZM34.0533 19.4414C34.0316 19.4669 34.0115 19.4939 33.9937 19.5218C33.9195 19.6068 33.8383 19.6818 33.758 19.7584L18.9993 34.5062L5.09638 20.6312C5.05155 20.543 4.98891 20.4626 4.91239 20.3954C2.79634 18.5477 1.58331 15.7668 1.58331 12.7656C1.58331 7.47281 5.31206 3.16663 9.89581 3.16663C14.4278 3.16663 18.2957 9.07786 18.3343 9.13738C18.6266 9.58886 19.3734 9.58886 19.6657 9.13738C19.7043 9.07786 23.5722 3.16663 28.1042 3.16663C32.6879 3.16663 36.4167 7.47288 36.4167 12.7656C36.4167 15.2596 35.5771 17.6308 34.0533 19.4414Z" fill="black"/>
</svg>
