<svg width="50" height="50" viewBox="0 0 50 50" fill="none" xmlns="http://www.w3.org/2000/svg">
<path d="M35.416 4.1665H14.5827C8.82972 4.1665 4.16602 8.8302 4.16602 14.5832V35.4165C4.16602 41.1695 8.82972 45.8332 14.5827 45.8332H35.416C41.169 45.8332 45.8327 41.1695 45.8327 35.4165V14.5832C45.8327 8.8302 41.169 4.1665 35.416 4.1665Z" stroke="#353535" stroke-width="3" stroke-linecap="round" stroke-linejoin="round"/>
<path d="M33.3324 23.6876C33.5895 25.4215 33.2934 27.1923 32.4861 28.7481C31.6788 30.3039 30.4015 31.5656 28.8358 32.3536C27.2701 33.1417 25.4958 33.416 23.7653 33.1375C22.0347 32.859 20.4361 32.042 19.1966 30.8026C17.9572 29.5631 17.1402 27.9645 16.8617 26.2339C16.5832 24.5034 16.8575 22.7291 17.6456 21.1634C18.4336 19.5978 19.6953 18.3204 21.2511 17.5131C22.8069 16.7059 24.5777 16.4097 26.3116 16.6668C28.0802 16.9291 29.7175 17.7532 30.9818 19.0174C32.246 20.2817 33.0701 21.919 33.3324 23.6876Z" stroke="#353535" stroke-width="3" stroke-linecap="round" stroke-linejoin="round"/>
<path d="M36.459 13.5415H36.4798" stroke="#353535" stroke-width="3" stroke-linecap="round" stroke-linejoin="round"/>
</svg>
