<svg width="45" height="45" viewBox="0 0 45 45" fill="none" xmlns="http://www.w3.org/2000/svg">
<g clip-path="url(#clip0)">
<path d="M44.955 13.2301C44.8496 10.8391 44.463 9.19529 43.9091 7.77091C43.3377 6.25897 42.4586 4.90532 41.3069 3.78003C40.1816 2.63723 38.819 1.74923 37.3246 1.18676C35.8919 0.632867 34.2567 0.24621 31.8657 0.14079C29.4568 0.026441 28.6921 0 22.5825 0C16.4729 0 15.7082 0.026441 13.3082 0.131862C10.9172 0.237282 9.27341 0.624283 7.84938 1.17783C6.33709 1.74923 4.98345 2.62831 3.85816 3.78003C2.71536 4.90532 1.8277 6.26789 1.26488 7.76233C0.710992 9.19529 0.324335 10.8302 0.218915 13.2212C0.104566 15.6301 0.078125 16.3948 0.078125 22.5044C0.078125 28.614 0.104566 29.3787 0.209987 31.7787C0.315407 34.1697 0.702407 35.8135 1.25629 37.2379C1.8277 38.7498 2.71536 40.1035 3.85816 41.2288C4.98345 42.3716 6.34602 43.2596 7.84045 43.822C9.27341 44.3759 10.9083 44.7626 13.2997 44.868C15.6993 44.9738 16.4643 44.9999 22.5739 44.9999C28.6835 44.9999 29.4482 44.9738 31.8482 44.868C34.2392 44.7626 35.883 44.3759 37.3071 43.822C40.3313 42.6528 42.7223 40.2618 43.8916 37.2379C44.4451 35.8049 44.8321 34.1697 44.9375 31.7787C45.0429 29.3787 45.0694 28.614 45.0694 22.5044C45.0694 16.3948 45.0605 15.6301 44.955 13.2301ZM40.9027 31.6028C40.8059 33.8005 40.4367 34.9873 40.129 35.7785C39.3729 37.7389 37.817 39.2948 35.8566 40.0509C35.0654 40.3586 33.8701 40.7277 31.681 40.8242C29.3075 40.93 28.5956 40.9561 22.5914 40.9561C16.5873 40.9561 15.8665 40.93 13.5016 40.8242C11.3039 40.7277 10.1171 40.3586 9.32595 40.0509C8.35038 39.6904 7.46238 39.119 6.7416 38.3717C5.99439 37.642 5.42298 36.763 5.06243 35.7874C4.75475 34.9962 4.3856 33.8005 4.28911 31.6118C4.18335 29.2383 4.15725 28.5261 4.15725 22.5219C4.15725 16.5177 4.18335 15.797 4.28911 13.4324C4.3856 11.2347 4.75475 10.0479 5.06243 9.25676C5.42298 8.28084 5.99439 7.39318 6.75053 6.67206C7.47989 5.92485 8.35897 5.35345 9.33488 4.99323C10.126 4.68555 11.3217 4.31641 13.5105 4.21957C15.884 4.11415 16.5962 4.08771 22.6 4.08771C28.6131 4.08771 29.325 4.11415 31.6899 4.21957C33.8876 4.31641 35.0743 4.68555 35.8655 4.99323C36.8411 5.35345 37.7291 5.92485 38.4499 6.67206C39.1971 7.40177 39.7685 8.28084 40.129 9.25676C40.4367 10.0479 40.8059 11.2433 40.9027 13.4324C41.0081 15.8059 41.0346 16.5177 41.0346 22.5219C41.0346 28.5261 41.0081 29.2293 40.9027 31.6028Z" fill="#D7D7D7"/>
<path d="M22.5833 10.9446C16.2014 10.9446 11.0234 16.1222 11.0234 22.5045C11.0234 28.8867 16.2014 34.0643 22.5833 34.0643C28.9656 34.0643 34.1432 28.8867 34.1432 22.5045C34.1432 16.1222 28.9656 10.9446 22.5833 10.9446ZM22.5833 30.0031C18.4431 30.0031 15.0847 26.6451 15.0847 22.5045C15.0847 18.3639 18.4431 15.0059 22.5833 15.0059C26.7239 15.0059 30.0819 18.3639 30.0819 22.5045C30.0819 26.6451 26.7239 30.0031 22.5833 30.0031V30.0031Z" fill="#D7D7D7"/>
<path d="M37.2981 10.4875C37.2981 11.9778 36.0898 13.1862 34.5991 13.1862C33.1088 13.1862 31.9004 11.9778 31.9004 10.4875C31.9004 8.99687 33.1088 7.78882 34.5991 7.78882C36.0898 7.78882 37.2981 8.99687 37.2981 10.4875V10.4875Z" fill="#D7D7D7"/>
</g>
<defs>
<clipPath id="clip0">
<rect width="45" height="45" fill="#D7D7D7"/>
</clipPath>
</defs>
</svg>
