<svg width="16" height="16" viewBox="0 0 16 16" fill="none" xmlns="http://www.w3.org/2000/svg">
<path d="M4.66732 14.6663H2.66732C2.3137 14.6663 1.97456 14.5259 1.72451 14.2758C1.47446 14.0258 1.33398 13.6866 1.33398 13.333V8.66634C1.33398 8.31272 1.47446 7.97358 1.72451 7.72353C1.97456 7.47348 2.3137 7.33301 2.66732 7.33301H4.66732M9.33398 5.99967V3.33301C9.33398 2.80257 9.12327 2.29387 8.7482 1.91879C8.37313 1.54372 7.86442 1.33301 7.33398 1.33301L4.66732 7.33301V14.6663H12.1873C12.5089 14.67 12.8209 14.5573 13.0659 14.349C13.3109 14.1407 13.4724 13.8509 13.5207 13.533L14.4407 7.53301C14.4697 7.34191 14.4568 7.1468 14.4029 6.96118C14.349 6.77556 14.2554 6.60387 14.1286 6.45802C14.0017 6.31216 13.8447 6.19563 13.6684 6.11649C13.492 6.03734 13.3006 5.99749 13.1073 5.99967H9.33398Z" stroke="#A0A4A8" stroke-linecap="round" stroke-linejoin="round"/>
</svg>
