<svg width="45" height="45" viewBox="0 0 45 45" fill="none" xmlns="http://www.w3.org/2000/svg">
<path d="M24.196 9.71407C30.1404 9.91149 35.4896 15.3913 35.417 21.2123C35.4068 22.015 36.0499 22.6726 36.8512 22.6828C36.857 22.6828 36.8642 22.6828 36.87 22.6828C37.6626 22.6828 38.3115 22.0455 38.3217 21.2486C38.4146 13.8076 31.8591 7.06342 24.2933 6.81375C23.5007 6.74842 22.8213 7.41617 22.7938 8.216C22.7676 9.01729 23.3947 9.68794 24.196 9.71407Z" fill="#D7D7D7"/>
<path d="M23.8538 14.5437C27.5511 14.9806 30.5356 18.0725 30.5066 21.4374C30.4993 22.2401 31.1438 22.8948 31.9451 22.902C31.9495 22.902 31.9538 22.902 31.9582 22.902C32.7537 22.902 33.4025 22.2604 33.4098 21.4635C33.4504 16.6616 29.3162 12.2646 24.1935 11.6608C23.4024 11.5606 22.6766 12.1354 22.5822 12.9324C22.4893 13.7279 23.0583 14.4508 23.8538 14.5437Z" fill="#D7D7D7"/>
<path d="M36.257 28.0711L35.8389 27.7518C35.0768 27.1508 34.2799 26.605 33.5091 26.0781L32.9952 25.7253C31.5813 24.7528 30.2357 24.3782 29.0018 24.6134C27.842 24.8341 26.836 25.5671 26.013 26.7894C25.8184 27.0753 25.6341 27.3497 24.7921 26.9752C23.3173 26.3205 22.0442 25.4916 21.0078 24.5118L18.4689 20.8944C18.0407 19.8928 18.2744 19.5923 18.8565 19.2047C19.591 18.7141 21.1181 17.6936 21.0049 15.6468C20.8902 13.5812 16.8083 8.12163 14.8573 7.4205C13.9689 7.0997 13.0428 7.09244 12.1036 7.40599C9.98134 8.10712 8.45134 9.36567 7.68198 11.0466C6.94456 12.6579 6.97505 14.5218 7.76908 16.4321C11.8321 26.2189 19.0917 33.3753 29.3459 37.7041C29.8742 37.9276 30.4157 38.0452 30.7742 38.125L31.0196 38.1802C31.1531 38.2165 31.2925 38.2295 31.4304 38.2295C34.4076 38.2295 37.4415 35.5499 38.3139 33.1242C39.3126 30.3574 37.3994 28.9261 36.257 28.0711ZM35.5805 32.14C35.026 33.6831 33.033 35.2378 31.5509 35.322C31.5015 35.3118 31.4492 35.3002 31.3926 35.2871C31.1096 35.2247 30.7568 35.1478 30.4752 35.0287C20.9468 31.0063 14.2099 24.3739 10.4488 15.3173C9.97408 14.172 9.92908 13.1137 10.3225 12.2558C10.7478 11.3282 11.6783 10.6039 13.0167 10.1626C13.185 10.1074 13.3375 10.0784 13.4812 10.0784C13.6104 10.0784 13.7323 10.1016 13.8528 10.1466C14.8689 10.6141 17.9304 14.7091 18.106 15.8094C18.1205 16.046 18.0668 16.242 17.2467 16.7892C16.1492 17.5208 14.5118 19.196 15.8778 22.2124C15.9141 22.2952 15.9591 22.3721 16.0113 22.4462L18.7128 26.2958C18.7665 26.3713 18.826 26.4424 18.8913 26.5063C20.1905 27.7649 21.78 28.8144 23.612 29.6287C25.5586 30.4997 27.3121 30.057 28.4197 28.4137C28.7942 27.8563 29.1717 27.5384 29.5418 27.4673C30.1036 27.3613 30.8323 27.7634 31.3462 28.1176L31.8673 28.4747C32.6033 28.977 33.3407 29.4807 34.0389 30.0323C34.1942 30.1557 34.3554 30.2747 34.515 30.3952C35.7518 31.3213 35.8099 31.5057 35.5805 32.14Z" fill="#D7D7D7"/>
<path d="M32.9284 0H12.0716C5.52774 0 0 5.52919 0 12.0716V32.9269C0 39.4708 5.52774 45 12.0716 45H32.9284C39.4708 45 45 39.4708 45 32.9255V12.0716C45 5.52919 39.4723 0 32.9284 0ZM42.0968 32.9255C42.0968 37.8958 37.8987 42.0953 32.9284 42.0953H12.0716C7.10274 42.0953 2.90323 37.8973 2.90323 32.9255V12.0716C2.90323 7.10274 7.10274 2.90323 12.0716 2.90323H32.9284C37.8973 2.90323 42.0968 7.10129 42.0968 12.0716V32.9255Z" fill="#D7D7D7"/>
</svg>
