<svg width="45" height="45" viewBox="0 0 45 45" fill="none" xmlns="http://www.w3.org/2000/svg">
<path d="M24.196 9.71431C30.1404 9.91173 35.4896 15.3916 35.417 21.2125C35.4068 22.0153 36.0499 22.6728 36.8512 22.683C36.857 22.683 36.8642 22.683 36.87 22.683C37.6626 22.683 38.3115 22.0458 38.3217 21.2488C38.4146 13.8079 31.8591 7.06367 24.2933 6.81399C23.5007 6.74867 22.8213 7.41641 22.7938 8.21625C22.7676 9.01754 23.3947 9.68818 24.196 9.71431Z" fill="#353535"/>
<path d="M23.8538 14.5437C27.5511 14.9806 30.5356 18.0725 30.5066 21.4374C30.4993 22.2401 31.1438 22.8948 31.9451 22.902C31.9495 22.902 31.9538 22.902 31.9582 22.902C32.7537 22.902 33.4025 22.2604 33.4098 21.4635C33.4504 16.6616 29.3162 12.2646 24.1935 11.6608C23.4024 11.5606 22.6766 12.1354 22.5822 12.9324C22.4893 13.7279 23.0583 14.4508 23.8538 14.5437Z" fill="#353535"/>
<path d="M36.257 28.0716L35.8389 27.7523C35.0768 27.1513 34.2799 26.6055 33.5091 26.0786L32.9952 25.7258C31.5813 24.7533 30.2357 24.3787 29.0018 24.6139C27.842 24.8345 26.836 25.5676 26.013 26.7899C25.8184 27.0758 25.6341 27.3502 24.7921 26.9757C23.3173 26.321 22.0442 25.4921 21.0078 24.5123L18.4689 20.8949C18.0407 19.8933 18.2744 19.5928 18.8565 19.2052C19.591 18.7145 21.1181 17.6941 21.0049 15.6473C20.8902 13.5816 16.8083 8.12212 14.8573 7.42099C13.9689 7.10019 13.0428 7.09293 12.1036 7.40648C9.98134 8.10761 8.45134 9.36615 7.68198 11.0471C6.94456 12.6584 6.97505 14.5223 7.76908 16.4326C11.8321 26.2194 19.0917 33.3758 29.3459 37.7045C29.8742 37.9281 30.4157 38.0457 30.7742 38.1255L31.0196 38.1807C31.1531 38.217 31.2925 38.23 31.4304 38.23C34.4076 38.23 37.4415 35.5504 38.3139 33.1247C39.3126 30.3579 37.3994 28.9266 36.257 28.0716ZM35.5805 32.1405C35.026 33.6836 33.033 35.2383 31.5509 35.3224C31.5015 35.3123 31.4492 35.3007 31.3926 35.2876C31.1096 35.2252 30.7568 35.1483 30.4752 35.0292C20.9468 31.0068 14.2099 24.3744 10.4488 15.3178C9.97408 14.1724 9.92908 13.1142 10.3225 12.2563C10.7478 11.3287 11.6783 10.6044 13.0167 10.1631C13.185 10.1079 13.3375 10.0789 13.4812 10.0789C13.6104 10.0789 13.7323 10.1021 13.8528 10.1471C14.8689 10.6145 17.9304 14.7095 18.106 15.8099C18.1205 16.0465 18.0668 16.2424 17.2467 16.7897C16.1492 17.5213 14.5118 19.1965 15.8778 22.2129C15.9141 22.2957 15.9591 22.3726 16.0113 22.4466L18.7128 26.2963C18.7665 26.3718 18.826 26.4429 18.8913 26.5068C20.1905 27.7654 21.78 28.8149 23.612 29.6292C25.5586 30.5002 27.3121 30.0574 28.4197 28.4142C28.7942 27.8568 29.1717 27.5389 29.5418 27.4678C30.1036 27.3618 30.8323 27.7639 31.3462 28.1181L31.8673 28.4752C32.6033 28.9774 33.3407 29.4812 34.0389 30.0328C34.1942 30.1562 34.3554 30.2752 34.515 30.3957C35.7518 31.3218 35.8099 31.5062 35.5805 32.1405Z" fill="#353535"/>
<path d="M32.9284 0H12.0716C5.52774 0 0 5.52919 0 12.0716V32.9269C0 39.4708 5.52774 45 12.0716 45H32.9284C39.4708 45 45 39.4708 45 32.9255V12.0716C45 5.52919 39.4723 0 32.9284 0ZM42.0968 32.9255C42.0968 37.8958 37.8987 42.0953 32.9284 42.0953H12.0716C7.10274 42.0953 2.90323 37.8973 2.90323 32.9255V12.0716C2.90323 7.10274 7.10274 2.90323 12.0716 2.90323H32.9284C37.8973 2.90323 42.0968 7.10129 42.0968 12.0716V32.9255Z" fill="#353535"/>
</svg>
