<svg width="20" height="20" viewBox="0 0 20 20" fill="none" xmlns="http://www.w3.org/2000/svg">
<g clip-path="url(#clip0)">
<path d="M7.49984 18.3337C7.96007 18.3337 8.33317 17.9606 8.33317 17.5003C8.33317 17.0401 7.96007 16.667 7.49984 16.667C7.0396 16.667 6.6665 17.0401 6.6665 17.5003C6.6665 17.9606 7.0396 18.3337 7.49984 18.3337Z" stroke="#FCC21B" stroke-width="2" stroke-linecap="round" stroke-linejoin="round"/>
<path d="M16.6668 18.3337C17.1271 18.3337 17.5002 17.9606 17.5002 17.5003C17.5002 17.0401 17.1271 16.667 16.6668 16.667C16.2066 16.667 15.8335 17.0401 15.8335 17.5003C15.8335 17.9606 16.2066 18.3337 16.6668 18.3337Z" stroke="#FCC21B" stroke-width="2" stroke-linecap="round" stroke-linejoin="round"/>
<path d="M0.833496 0.833008H4.16683L6.40016 11.9913C6.47637 12.375 6.68509 12.7196 6.98978 12.9649C7.29448 13.2102 7.67574 13.3405 8.06683 13.333H16.1668C16.5579 13.3405 16.9392 13.2102 17.2439 12.9649C17.5486 12.7196 17.7573 12.375 17.8335 11.9913L19.1668 4.99968H5.00016" stroke="#FCC21B" stroke-width="2" stroke-linecap="round" stroke-linejoin="round"/>
</g>
<defs>
<clipPath id="clip0">
<path d="M0 0H20V20H0V0Z" fill="white"/>
</clipPath>
</defs>
</svg>
