<svg width="20" height="20" viewBox="0 0 20 20" fill="none" xmlns="http://www.w3.org/2000/svg">
<g clip-path="url(#clip0)">
<path d="M19.9861 6.64572C19.9807 6.57598 19.9745 6.52252 19.969 6.48581C19.6892 3.31736 17.3646 0.809448 14.3478 0.809448C12.6001 0.809448 11.0029 1.6365 9.95712 2.97728C8.93572 1.62748 7.39939 0.809448 5.6609 0.809448C2.65437 0.809448 0.33519 3.30037 0.0365841 6.50381C0.0308439 6.54114 0.0250647 6.5866 0.0197931 6.64006C-0.0312436 7.15761 0.0112024 7.84338 0.208438 8.67895C0.627509 10.4542 1.60748 12.0712 2.98965 13.3241L9.42598 18.9831C9.73946 19.2587 10.2086 19.2597 10.5233 18.9855L17.0068 13.3358C18.535 11.7454 19.4432 10.3147 19.8033 8.66618C19.984 7.83827 20.0261 7.15698 19.9861 6.64572ZM18.1756 8.31083C17.8924 9.60741 17.1388 10.7945 15.858 12.1315L9.97871 17.2506L4.09918 12.0813C2.97141 11.0589 2.16994 9.73639 1.82994 8.29619C1.67558 7.64224 1.64457 7.14093 1.67784 6.80355C1.68077 6.77372 1.69319 6.68359 1.69319 6.68359C1.90749 4.27128 3.5721 2.47554 5.6609 2.47554C7.21594 2.47554 8.53895 3.42392 9.18192 4.9471C9.46846 5.62584 10.4303 5.62584 10.7169 4.9471C11.3469 3.45446 12.7637 2.47554 14.3478 2.47554C16.4367 2.47554 18.1012 4.2714 18.3155 6.68445C18.3213 6.73295 18.3229 6.74638 18.3251 6.77555C18.3526 7.12797 18.3207 7.64615 18.1756 8.31083Z" fill="#FCC21B"/>
</g>
<defs>
<clipPath id="clip0">
<rect width="20" height="20" fill="white"/>
</clipPath>
</defs>
</svg>
