<svg width="20" height="20" viewBox="0 0 20 20" fill="none" xmlns="http://www.w3.org/2000/svg">
<g clip-path="url(#clip0)">
<path d="M13.3335 1.66663V6.66663H18.3335" stroke="#FCC21B" stroke-width="2" stroke-linecap="round" stroke-linejoin="round"/>
<path d="M19.1668 0.833374L13.3335 6.66671" stroke="#FCC21B" stroke-width="2" stroke-linecap="round" stroke-linejoin="round"/>
<path d="M18.3332 14.1V16.6C18.3341 16.8321 18.2866 17.0618 18.1936 17.2745C18.1006 17.4871 17.9643 17.678 17.7933 17.8349C17.6222 17.9918 17.4203 18.1113 17.2005 18.1856C16.9806 18.26 16.7477 18.2876 16.5165 18.2667C13.9522 17.9881 11.489 17.1118 9.32486 15.7084C7.31139 14.4289 5.60431 12.7218 4.32486 10.7084C2.91651 8.53438 2.04007 6.0592 1.76653 3.48337C1.7457 3.25293 1.77309 3.02067 1.84695 2.80139C1.9208 2.58211 2.03951 2.38061 2.1955 2.20972C2.3515 2.03883 2.54137 1.9023 2.75302 1.80881C2.96468 1.71532 3.19348 1.66692 3.42486 1.66671H5.92486C6.32928 1.66273 6.72136 1.80594 7.028 2.06965C7.33464 2.33336 7.53493 2.69958 7.59153 3.10004C7.69705 3.9001 7.89274 4.68565 8.17486 5.44171C8.28698 5.73998 8.31125 6.06414 8.24478 6.37577C8.17832 6.68741 8.02392 6.97347 7.79986 7.20004L6.74153 8.25837C7.92783 10.3447 9.65524 12.0721 11.7415 13.2584L12.7999 12.2C13.0264 11.976 13.3125 11.8216 13.6241 11.7551C13.9358 11.6887 14.2599 11.7129 14.5582 11.825C15.3143 12.1072 16.0998 12.3029 16.8999 12.4084C17.3047 12.4655 17.6744 12.6694 17.9386 12.9813C18.2029 13.2932 18.3433 13.6914 18.3332 14.1Z" stroke="#FCC21B" stroke-width="2" stroke-linecap="round" stroke-linejoin="round"/>
</g>
<defs>
<clipPath id="clip0">
<path d="M0 0H20V20H0V0Z" fill="white"/>
</clipPath>
</defs>
</svg>
