<svg width="15" height="15" viewBox="0 0 15 15" fill="none" xmlns="http://www.w3.org/2000/svg">
<path d="M7.4751 13.7293H1.86876C1.5249 13.7293 1.24585 13.4502 1.24585 13.1063V1.89369C1.24585 1.54983 1.52493 1.27078 1.86876 1.27078H7.4751C7.81957 1.27078 8.09801 0.992344 8.09801 0.647871C8.09801 0.303398 7.81957 0.0249023 7.4751 0.0249023H1.86876C0.838447 0.0249023 0 0.863379 0 1.89369V13.1063C0 14.1366 0.838447 14.9751 1.86876 14.9751H7.4751C7.81957 14.9751 8.09801 14.6966 8.09801 14.3522C8.09801 14.0077 7.81957 13.7293 7.4751 13.7293Z" fill="#FCC21B"/>
<path d="M14.8144 7.05653L11.027 3.31898C10.7828 3.07729 10.3879 3.08042 10.1462 3.32522C9.90447 3.57003 9.90696 3.96434 10.1524 4.20603L12.859 6.87712H5.60631C5.26184 6.87712 4.9834 7.15556 4.9834 7.50003C4.9834 7.8445 5.26184 8.12297 5.60631 8.12297H12.859L10.1524 10.7941C9.90699 11.0358 9.90512 11.4301 10.1462 11.6749C10.2682 11.7982 10.429 11.8605 10.5897 11.8605C10.7479 11.8605 10.9061 11.8007 11.027 11.6811L14.8144 7.94352C14.9327 7.82642 15 7.66693 15 7.5C15 7.33312 14.9333 7.17428 14.8144 7.05653Z" fill="#FCC21B"/>
</svg>
