<svg width="20" height="20" viewBox="0 0 20 20" fill="none" xmlns="http://www.w3.org/2000/svg">
<g clip-path="url(#clip0)">
<path d="M4.43242 12.0864L3.73625 14.6853L1.19176 14.7391C0.431328 13.3287 0 11.715 0 10.0002C0 8.34191 0.403281 6.77816 1.11812 5.40125H1.11867L3.38398 5.81656L4.37633 8.06828C4.16863 8.67378 4.05543 9.32378 4.05543 10.0002C4.05551 10.7342 4.18848 11.4375 4.43242 12.0864Z" fill="#FBBB00"/>
<path d="M19.8261 8.13196C19.941 8.73688 20.0009 9.36161 20.0009 10.0001C20.0009 10.716 19.9256 11.4144 19.7822 12.088C19.2954 14.3803 18.0234 16.382 16.2613 17.7984L16.2608 17.7979L13.4075 17.6523L13.0037 15.1314C14.1729 14.4457 15.0866 13.3726 15.568 12.088H10.2207V8.13196H15.646H19.8261Z" fill="#518EF8"/>
<path d="M16.2595 17.7978L16.2601 17.7984C14.5464 19.1758 12.3694 20 9.99965 20C6.19141 20 2.88043 17.8715 1.19141 14.739L4.43207 12.0863C5.27656 14.3401 7.45074 15.9445 9.99965 15.9445C11.0952 15.9445 12.1216 15.6484 13.0024 15.1313L16.2595 17.7978Z" fill="#28B446"/>
<path d="M16.382 2.30219L13.1425 4.95437C12.2309 4.38461 11.1534 4.05547 9.99906 4.05547C7.39246 4.05547 5.17762 5.73348 4.37543 8.06812L1.11773 5.40109H1.11719C2.78148 2.1923 6.13422 0 9.99906 0C12.4254 0 14.6502 0.864297 16.382 2.30219Z" fill="#F14336"/>
</g>
<defs>
<clipPath id="clip0">
<path d="M0 0H20V20H0V0Z" fill="white"/>
</clipPath>
</defs>
</svg>
