<svg width="161" height="61" viewBox="0 0 161 61" fill="none" xmlns="http://www.w3.org/2000/svg">
<path d="M3.95299 60.8941H0V54.2587H3.95299V54.6853H0.504636V57.1951H3.76004V57.6218H0.504636V60.4675H3.95299V60.8941Z" fill="#353535"/>
<path d="M19.3189 54.2587V58.5522C19.3189 59.3147 19.0781 59.9107 18.5965 60.3404C18.115 60.77 17.4438 60.9849 16.5829 60.9849C15.7452 60.9849 15.0905 60.77 14.6188 60.3404C14.1505 59.9077 13.9163 59.3056 13.9163 58.534V54.2587H14.4259V58.5522C14.4259 59.1906 14.6188 59.6883 15.0047 60.0454C15.3906 60.3994 15.9365 60.5764 16.6423 60.5764C17.3317 60.5764 17.866 60.4024 18.2453 60.0544C18.6246 59.7035 18.8142 59.2178 18.8142 58.5976V54.2587H19.3189Z" fill="#353535"/>
<path d="M30.2073 58.003V60.8941H29.7027V54.2587H31.4244C32.3215 54.2587 32.9845 54.4115 33.4133 54.7171C33.842 55.0197 34.0564 55.4765 34.0564 56.0877C34.0564 56.5325 33.9278 56.9077 33.6705 57.2133C33.4166 57.5189 33.029 57.7383 32.5079 57.8714L34.472 60.8941H33.8684L32.0032 58.003H30.2073ZM30.2073 57.6036H31.5877C32.1978 57.6036 32.6711 57.4796 33.0076 57.2315C33.344 56.9803 33.5122 56.6112 33.5122 56.124C33.5122 55.6187 33.3473 55.2511 33.0175 55.0212C32.6876 54.7912 32.15 54.6762 31.4046 54.6762H30.2073V57.6036Z" fill="#353535"/>
<path d="M50.2188 57.5673C50.2188 58.6203 49.9319 59.4538 49.358 60.0681C48.7841 60.6793 47.9925 60.9849 46.9832 60.9849C45.9773 60.9849 45.1873 60.6793 44.6134 60.0681C44.0395 59.4538 43.7526 58.6172 43.7526 57.5582C43.7526 56.5023 44.0412 55.6717 44.6184 55.0666C45.1989 54.4584 45.9904 54.1543 46.9931 54.1543C48.0024 54.1543 48.7923 54.4599 49.3629 55.0711C49.9335 55.6793 50.2188 56.5113 50.2188 57.5673ZM44.3017 57.5673C44.3017 58.5174 44.5326 59.2526 44.9944 59.7731C45.4561 60.2905 46.1191 60.5491 46.9832 60.5491C47.854 60.5491 48.5186 60.292 48.977 59.7776C49.4388 59.2632 49.6697 58.5265 49.6697 57.5673C49.6697 56.6112 49.4388 55.879 48.977 55.3706C48.5186 54.8593 47.8573 54.6036 46.9931 54.6036C46.1323 54.6036 45.4677 54.8608 44.9993 55.3752C44.5343 55.8895 44.3017 56.6203 44.3017 57.5673Z" fill="#353535"/>
<path d="M85.5608 60.8941L82.8645 54.767H82.8249C82.8513 55.1422 82.8645 55.5265 82.8645 55.9198V60.8941H82.3796V54.2587H83.1613L85.7241 60.0953H85.7537L88.3165 54.2587H89.0784V60.8941H88.5688V55.8653C88.5688 55.5144 88.5886 55.1513 88.6282 54.7761H88.5886L85.8824 60.8941H85.5608Z" fill="#353535"/>
<path d="M103.019 58.5522H100.081L99.0714 60.8941H98.5123L101.421 54.2315H101.743L104.593 60.8941H104.024L103.019 58.5522ZM100.264 58.1346H102.851L101.867 55.7428C101.784 55.5552 101.685 55.295 101.57 54.9622C101.481 55.2526 101.383 55.5159 101.278 55.7519L100.264 58.1346Z" fill="#353535"/>
<path d="M114.536 58.003V60.8941H114.032V54.2587H115.753C116.65 54.2587 117.313 54.4115 117.742 54.7171C118.171 55.0197 118.385 55.4765 118.385 56.0877C118.385 56.5325 118.257 56.9077 117.999 57.2133C117.745 57.5189 117.358 57.7383 116.837 57.8714L118.801 60.8941H118.197L116.332 58.003H114.536ZM114.536 57.6036H115.917C116.527 57.6036 117 57.4796 117.336 57.2315C117.673 56.9803 117.841 56.6112 117.841 56.124C117.841 55.6187 117.676 55.2511 117.346 55.0212C117.017 54.7912 116.479 54.6762 115.733 54.6762H114.536V57.6036Z" fill="#353535"/>
<path d="M133.331 60.8941H132.712L129.937 57.3903L128.972 58.1709V60.8941H128.467V54.2587H128.972V57.708L129.773 56.9728L132.608 54.2587H133.252L130.288 57.0635L133.331 60.8941Z" fill="#353535"/>
<path d="M146.718 60.8941H142.765V54.2587H146.718V54.6853H143.269V57.1951H146.525V57.6218H143.269V60.4675H146.718V60.8941Z" fill="#353535"/>
<path d="M158.65 60.8941H158.14V54.6944H155.79V54.2587H161V54.6944H158.65V60.8941Z" fill="#353535"/>
<path d="M0 -2.74278e-06H6.60938V25.5739H0V-2.74278e-06Z" fill="#FFC702"/>
<path d="M30.1762 15.9579C30.1762 16.0038 30.1415 16.5438 30.0719 17.5778H16.3661C16.6444 18.5428 17.1778 19.2896 17.9663 19.8181C18.7779 20.3236 19.7868 20.5763 20.9927 20.5763C21.8971 20.5763 22.674 20.45 23.3234 20.1972C23.9959 19.9444 24.6684 19.5309 25.341 18.9564L28.8196 22.5409C26.9875 24.5629 24.309 25.5739 20.784 25.5739C18.5808 25.5739 16.6444 25.1603 14.9747 24.3331C13.3049 23.506 12.0062 22.3571 11.0786 20.8865C10.1742 19.416 9.72193 17.7501 9.72193 15.8889C9.72193 14.0507 10.1626 12.4078 11.0438 10.9603C11.9483 9.4897 13.189 8.34082 14.7659 7.51363C16.3429 6.68645 18.117 6.27285 20.0882 6.27285C21.9667 6.27285 23.6712 6.66347 25.2018 7.4447C26.7324 8.20296 27.9383 9.31737 28.8196 10.7879C29.724 12.2355 30.1762 13.9588 30.1762 15.9579ZM20.123 10.9258C19.1026 10.9258 18.2446 11.213 17.5488 11.7874C16.8763 12.3619 16.4473 13.1431 16.2617 14.1311H23.9843C23.7988 13.1431 23.3581 12.3619 22.6624 11.7874C21.9899 11.213 21.1434 10.9258 20.123 10.9258Z" fill="#FFC702"/>
<path d="M47.9846 6.2623C49.699 6.2623 51.2512 6.66605 52.6412 7.47357C54.0544 8.25801 55.1664 9.38853 55.9772 10.8651C56.8112 12.3186 57.2282 14.0144 57.2282 15.9525C57.2282 17.8905 56.8112 19.5978 55.9772 21.0744C55.1664 22.5279 54.0544 23.6584 52.6412 24.466C51.2512 25.2504 49.699 25.6426 47.9846 25.6426C45.7838 25.6426 44.0347 24.9851 42.7373 23.67V32.045H36.1348V6.57376H42.4246V8.44258C43.6524 6.98906 45.5058 6.2623 47.9846 6.2623ZM46.5946 20.4169C47.753 20.4169 48.7028 20.0246 49.4442 19.2402C50.1855 18.4327 50.5562 17.3368 50.5562 15.9525C50.5562 14.5681 50.1855 13.4838 49.4442 12.6993C48.7028 11.8918 47.753 11.4881 46.5946 11.4881C45.4363 11.4881 44.4864 11.8918 43.7451 12.6993C43.0038 13.4838 42.6331 14.5681 42.6331 15.9525C42.6331 17.3368 43.0038 18.4327 43.7451 19.2402C44.4864 20.0246 45.4363 20.4169 46.5946 20.4169Z" fill="#353535"/>
<path d="M80.5914 15.9871C80.5914 16.0332 80.5566 16.5754 80.4871 17.6136H66.7955C67.0735 18.5826 67.6063 19.3325 68.394 19.8631C69.2048 20.3707 70.2126 20.6245 71.4173 20.6245C72.3208 20.6245 73.0969 20.4976 73.7455 20.2438C74.4174 19.99 75.0892 19.5747 75.7611 18.9979L79.2361 22.5971C77.4059 24.6275 74.7301 25.6426 71.2088 25.6426C69.0079 25.6426 67.0735 25.2273 65.4054 24.3967C63.7374 23.5662 62.4401 22.4126 61.5134 20.936C60.6099 19.4594 60.1581 17.7867 60.1581 15.9179C60.1581 14.0721 60.5983 12.4225 61.4786 10.9689C62.3822 9.49235 63.6216 8.33876 65.1969 7.50817C66.7723 6.67759 68.5446 6.2623 70.5137 6.2623C72.3903 6.2623 74.093 6.65452 75.6221 7.43896C77.1511 8.20033 78.3557 9.31931 79.2361 10.7959C80.1396 12.2494 80.5914 13.9798 80.5914 15.9871ZM70.5485 10.9343C69.5291 10.9343 68.672 11.2227 67.977 11.7995C67.3051 12.3763 66.8765 13.1608 66.6912 14.1529H74.4058C74.2204 13.1608 73.7803 12.3763 73.0853 11.7995C72.4134 11.2227 71.5678 10.9343 70.5485 10.9343Z" fill="#353535"/>
<path d="M97.6747 24.5698C97.1187 24.9159 96.4353 25.1812 95.6244 25.3658C94.8367 25.5503 93.9911 25.6426 93.0876 25.6426C90.6319 25.6426 88.7438 25.0428 87.4233 23.843C86.1028 22.6433 85.4426 20.8552 85.4426 18.4788V12.1802H82.6973V7.26592H85.4426V2.38623H92.0451V7.26592H96.3542V12.1802H92.0451V18.4096C92.0451 19.0787 92.2189 19.6093 92.5664 20.0016C92.9371 20.3707 93.4236 20.5553 94.0259 20.5553C94.7904 20.5553 95.4622 20.3592 96.0414 19.967L97.6747 24.5698Z" fill="#353535"/>
<path d="M107.553 9.13474C108.225 8.28108 109.094 7.6466 110.159 7.23131C111.248 6.79295 112.488 6.57376 113.878 6.57376V12.4917C113.275 12.4225 112.777 12.3879 112.383 12.3879C110.97 12.3879 109.858 12.7685 109.047 13.5299C108.26 14.2913 107.866 15.4564 107.866 17.0253V25.6426H101.263V6.88523H107.553V9.13474Z" fill="#353535"/>
<path d="M126.927 25.6426C124.912 25.6426 123.093 25.2273 121.471 24.3967C119.85 23.5662 118.575 22.4126 117.649 20.936C116.745 19.4594 116.294 17.7867 116.294 15.9179C116.294 14.0721 116.745 12.4109 117.649 10.9343C118.575 9.45774 119.838 8.31569 121.437 7.50817C123.058 6.67759 124.888 6.2623 126.927 6.2623C128.966 6.2623 130.796 6.67759 132.418 7.50817C134.039 8.31569 135.302 9.45774 136.206 10.9343C137.109 12.3879 137.561 14.049 137.561 15.9179C137.561 17.7867 137.109 19.4594 136.206 20.936C135.302 22.4126 134.039 23.5662 132.418 24.3967C130.796 25.2273 128.966 25.6426 126.927 25.6426ZM126.927 20.4169C128.086 20.4169 129.035 20.0246 129.777 19.2402C130.518 18.4327 130.889 17.3252 130.889 15.9179C130.889 14.5335 130.518 13.4492 129.777 12.6647C129.035 11.8803 128.086 11.4881 126.927 11.4881C125.769 11.4881 124.819 11.8803 124.078 12.6647C123.336 13.4492 122.966 14.5335 122.966 15.9179C122.966 17.3252 123.336 18.4327 124.078 19.2402C124.819 20.0246 125.769 20.4169 126.927 20.4169Z" fill="#353535"/>
<path d="M160.995 6.88523L153.211 25.6426H146.4L138.651 6.88523H145.427L149.945 18.3404L154.705 6.88523H160.995Z" fill="#353535"/>
<path d="M0 39.7742L161 39.7742V46.425L0 46.425L0 39.7742Z" fill="url(#paint0_linear)"/>
<path d="M0 39.7742H36.1391V46.425H0V39.7742Z" fill="#353535"/>
<defs>
<linearGradient id="paint0_linear" x1="161" y1="39.7742" x2="0" y2="39.7742" gradientUnits="userSpaceOnUse">
<stop offset="0.776225" stop-color="#FFC702"/>
<stop offset="0.776225"/>
</linearGradient>
</defs>
</svg>
