<svg width="104" height="40" viewBox="0 0 104 40" fill="none" xmlns="http://www.w3.org/2000/svg">
<path d="M2.55347 39.9405H0V35.5884H2.55347V35.8682H0.325975V37.5144H2.42883V37.7942H0.325975V39.6607H2.55347V39.9405Z" fill="white"/>
<path d="M12.4792 35.5884V38.4045C12.4792 38.9046 12.3237 39.2955 12.0126 39.5773C11.7016 39.8591 11.268 40 10.7119 40C10.1708 40 9.74785 39.8591 9.44318 39.5773C9.14064 39.2935 8.98937 38.8986 8.98937 38.3925V35.5884H9.31854V38.4045C9.31854 38.8232 9.44318 39.1497 9.69245 39.3838C9.94173 39.616 10.2943 39.7321 10.7503 39.7321C11.1956 39.7321 11.5407 39.618 11.7857 39.3898C12.0307 39.1596 12.1532 38.8411 12.1532 38.4342V35.5884H12.4792Z" fill="white"/>
<path d="M19.5127 38.0443V39.9405H19.1868V35.5884H20.2989C20.8784 35.5884 21.3067 35.6886 21.5836 35.889C21.8606 36.0875 21.9991 36.3872 21.9991 36.788C21.9991 37.0798 21.916 37.3258 21.7498 37.5263C21.5858 37.7267 21.3354 37.8706 20.9988 37.9579L22.2675 39.9405H21.8777L20.6728 38.0443H19.5127ZM19.5127 37.7823H20.4044C20.7985 37.7823 21.1043 37.7009 21.3216 37.5382C21.5389 37.3735 21.6476 37.1314 21.6476 36.8118C21.6476 36.4804 21.541 36.2393 21.328 36.0885C21.1149 35.9376 20.7676 35.8622 20.2861 35.8622H19.5127V37.7823Z" fill="white"/>
<path d="M32.4394 37.7585C32.4394 38.4491 32.254 38.9959 31.8833 39.3987C31.5126 39.7996 31.0012 40 30.3493 40C29.6995 40 29.1892 39.7996 28.8185 39.3987C28.4478 38.9959 28.2624 38.4471 28.2624 37.7525C28.2624 37.0599 28.4488 36.5152 28.8217 36.1182C29.1967 35.7193 29.708 35.5199 30.3557 35.5199C31.0076 35.5199 31.5179 35.7203 31.8865 36.1212C32.2551 36.5201 32.4394 37.0659 32.4394 37.7585ZM28.6172 37.7585C28.6172 38.3816 28.7663 38.8639 29.0646 39.2052C29.3629 39.5446 29.7911 39.7143 30.3493 39.7143C30.9118 39.7143 31.3411 39.5456 31.6372 39.2082C31.9355 38.8708 32.0846 38.3876 32.0846 37.7585C32.0846 37.1314 31.9355 36.6511 31.6372 36.3177C31.3411 35.9823 30.9139 35.8146 30.3557 35.8146C29.7996 35.8146 29.3703 35.9833 29.0678 36.3207C28.7674 36.658 28.6172 37.1373 28.6172 37.7585Z" fill="white"/>
<path d="M55.2689 39.9405L53.5271 35.9218H53.5016C53.5186 36.1679 53.5271 36.4199 53.5271 36.6779V39.9405H53.214V35.5884H53.7189L55.3743 39.4166H55.3935L57.049 35.5884H57.5411V39.9405H57.2119V36.6422C57.2119 36.412 57.2247 36.1738 57.2503 35.9277H57.2247L55.4766 39.9405H55.2689Z" fill="white"/>
<path d="M66.5465 38.4045H64.6481L63.9962 39.9405H63.6351L65.5142 35.5705H65.7219L67.5627 39.9405H67.1952L66.5465 38.4045ZM64.7664 38.1306H66.4378L65.8018 36.5618C65.7486 36.4387 65.6846 36.2681 65.6101 36.0498C65.5526 36.2403 65.4897 36.4129 65.4215 36.5677L64.7664 38.1306Z" fill="white"/>
<path d="M73.9858 38.0443V39.9405H73.6599V35.5884H74.772C75.3515 35.5884 75.7798 35.6886 76.0567 35.889C76.3337 36.0875 76.4722 36.3872 76.4722 36.788C76.4722 37.0798 76.3891 37.3258 76.2229 37.5263C76.0589 37.7267 75.8085 37.8706 75.4719 37.9579L76.7407 39.9405H76.3508L75.1459 38.0443H73.9858ZM73.9858 37.7823H74.8775C75.2716 37.7823 75.5774 37.7009 75.7947 37.5382C76.012 37.3735 76.1207 37.1314 76.1207 36.8118C76.1207 36.4804 76.0141 36.2393 75.8011 36.0885C75.588 35.9376 75.2407 35.8622 74.7592 35.8622H73.9858V37.7823Z" fill="white"/>
<path d="M86.1263 39.9405H85.7268L83.934 37.6424L83.3108 38.1544V39.9405H82.9848V35.5884H83.3108V37.8508L83.8285 37.3685L85.6597 35.5884H86.0752L84.1609 37.4281L86.1263 39.9405Z" fill="white"/>
<path d="M94.7737 39.9405H92.2203V35.5884H94.7737V35.8682H92.5462V37.5144H94.6491V37.7942H92.5462V39.6607H94.7737V39.9405Z" fill="white"/>
<path d="M102.482 39.9405H102.152V35.8741H100.634V35.5884H104V35.8741H102.482V39.9405Z" fill="white"/>
<path d="M0 -1.79899e-06H4.26939V16.7739H0V-1.79899e-06Z" fill="#FFC702"/>
<path d="M19.4926 10.4668C19.4926 10.4969 19.4702 10.8511 19.4252 11.5293H10.5718C10.7516 12.1622 11.0962 12.6521 11.6055 12.9987C12.1298 13.3302 12.7814 13.496 13.5604 13.496C14.1446 13.496 14.6465 13.4131 15.0659 13.2474C15.5004 13.0816 15.9348 12.8103 16.3692 12.4335L18.6163 14.7846C17.4328 16.1108 15.7026 16.774 13.4256 16.774C12.0025 16.774 10.7516 16.5027 9.67302 15.9601C8.59444 15.4176 7.75554 14.664 7.15632 13.6995C6.57209 12.7349 6.27998 11.6423 6.27998 10.4216C6.27998 9.21588 6.5646 8.13831 7.13385 7.18884C7.71809 6.2243 8.51953 5.47075 9.5382 4.9282C10.5569 4.38564 11.7029 4.11437 12.9762 4.11437C14.1896 4.11437 15.2906 4.37057 16.2793 4.88298C17.268 5.38032 18.047 6.11126 18.6163 7.0758C19.2005 8.02527 19.4926 9.15559 19.4926 10.4668ZM12.9987 7.16623C12.3395 7.16623 11.7852 7.35462 11.3358 7.73139C10.9014 8.10816 10.6243 8.62058 10.5044 9.26863H15.4929C15.373 8.62058 15.0884 8.10816 14.639 7.73139C14.2046 7.35462 13.6578 7.16623 12.9987 7.16623Z" fill="#FFC702"/>
<path d="M30.9993 4.10726C32.1067 4.10726 33.1094 4.37209 34.0072 4.90173C34.9201 5.41625 35.6384 6.15776 36.1622 7.12626C36.7009 8.07963 36.9703 9.1919 36.9703 10.4631C36.9703 11.7342 36.7009 12.854 36.1622 13.8226C35.6384 14.7759 34.9201 15.5174 34.0072 16.0471C33.1094 16.5616 32.1067 16.8189 30.9993 16.8189C29.5776 16.8189 28.4478 16.3876 27.6097 15.525V21.0182H23.3447V4.31155H27.4077V5.53731C28.2009 4.58395 29.398 4.10726 30.9993 4.10726ZM30.1014 13.3913C30.8496 13.3913 31.4632 13.134 31.9421 12.6195C32.421 12.0898 32.6604 11.371 32.6604 10.4631C32.6604 9.55509 32.421 8.84384 31.9421 8.32933C31.4632 7.79968 30.8496 7.53485 30.1014 7.53485C29.3532 7.53485 28.7396 7.79968 28.2607 8.32933C27.7818 8.84384 27.5424 9.55509 27.5424 10.4631C27.5424 11.371 27.7818 12.0898 28.2607 12.6195C28.7396 13.134 29.3532 13.3913 30.1014 13.3913Z" fill="white"/>
<path d="M52.062 10.4858C52.062 10.516 52.0395 10.8716 51.9946 11.5526H43.1504C43.3299 12.1882 43.6741 12.68 44.1829 13.0281C44.7067 13.361 45.3577 13.5275 46.1359 13.5275C46.7195 13.5275 47.2208 13.4442 47.6398 13.2778C48.0738 13.1113 48.5078 12.8389 48.9418 12.4606L51.1865 14.8213C50.0043 16.153 48.2759 16.8189 46.0012 16.8189C44.5795 16.8189 43.3299 16.5465 42.2525 16.0017C41.175 15.4569 40.337 14.7003 39.7384 13.7318C39.1547 12.7633 38.8629 11.6661 38.8629 10.4404C38.8629 9.22973 39.1472 8.14773 39.7159 7.19436C40.2995 6.22586 41.1002 5.46922 42.1178 4.92443C43.1354 4.37965 44.2802 4.10726 45.5522 4.10726C46.7644 4.10726 47.8643 4.36452 48.852 4.87904C49.8397 5.37842 50.6179 6.11236 51.1865 7.08086C51.7702 8.03423 52.062 9.1692 52.062 10.4858ZM45.5747 7.17166C44.9162 7.17166 44.3625 7.36082 43.9136 7.73914C43.4796 8.11747 43.2027 8.63198 43.083 9.2827H48.0663C47.9466 8.63198 47.6623 8.11747 47.2133 7.73914C46.7794 7.36082 46.2331 7.17166 45.5747 7.17166Z" fill="white"/>
<path d="M63.0972 16.1152C62.738 16.3422 62.2965 16.5162 61.7728 16.6373C61.264 16.7583 60.7177 16.8189 60.1341 16.8189C58.5478 16.8189 57.3282 16.4254 56.4752 15.6385C55.6222 14.8516 55.1957 13.6788 55.1957 12.1201V7.98884H53.4223V4.76554H55.1957V1.56494H59.4607V4.76554H62.2442V7.98884H59.4607V12.0747C59.4607 12.5136 59.5729 12.8616 59.7974 13.1189C60.0368 13.361 60.3511 13.4821 60.7402 13.4821C61.234 13.4821 61.668 13.3534 62.0421 13.0962L63.0972 16.1152Z" fill="white"/>
<path d="M69.4782 5.9913C69.9122 5.43138 70.4734 5.01523 71.1618 4.74284C71.8651 4.45532 72.6657 4.31155 73.5636 4.31155V8.19313C73.1745 8.14773 72.8528 8.12503 72.5984 8.12503C71.6855 8.12503 70.9672 8.37472 70.4434 8.87411C69.9346 9.37349 69.6802 10.1377 69.6802 11.1667V16.8189H65.4152V4.51585H69.4782V5.9913Z" fill="white"/>
<path d="M81.9932 16.8189C80.6912 16.8189 79.5165 16.5465 78.4689 16.0017C77.4214 15.4569 76.5983 14.7003 75.9997 13.7318C75.4161 12.7633 75.1243 11.6661 75.1243 10.4404C75.1243 9.22973 75.4161 8.14017 75.9997 7.17166C76.5983 6.20316 77.4139 5.45408 78.4465 4.92443C79.494 4.37965 80.6762 4.10726 81.9932 4.10726C83.3101 4.10726 84.4923 4.37965 85.5399 4.92443C86.5874 5.45408 87.403 6.20316 87.9866 7.17166C88.5703 8.12503 88.8621 9.2146 88.8621 10.4404C88.8621 11.6661 88.5703 12.7633 87.9866 13.7318C87.403 14.7003 86.5874 15.4569 85.5399 16.0017C84.4923 16.5465 83.3101 16.8189 81.9932 16.8189ZM81.9932 13.3913C82.7414 13.3913 83.355 13.134 83.8338 12.6195C84.3127 12.0898 84.5522 11.3635 84.5522 10.4404C84.5522 9.53239 84.3127 8.82114 83.8338 8.30663C83.355 7.79211 82.7414 7.53485 81.9932 7.53485C81.2449 7.53485 80.6314 7.79211 80.1525 8.30663C79.6736 8.82114 79.4342 9.53239 79.4342 10.4404C79.4342 11.3635 79.6736 12.0898 80.1525 12.6195C80.6314 13.134 81.2449 13.3913 81.9932 13.3913Z" fill="white"/>
<path d="M104 4.51585L98.9717 16.8189H94.572L89.5662 4.51585H93.9434L96.8616 12.0293L99.9369 4.51585H104Z" fill="white"/>
<path d="M0 26.0879L104 26.0879V30.4501L0 30.4501L0 26.0879Z" fill="url(#paint0_linear)"/>
<path d="M0 26.0879H23.3445V30.4501H0V26.0879Z" fill="white"/>
<defs>
<linearGradient id="paint0_linear" x1="104" y1="26.0879" x2="0" y2="26.0879" gradientUnits="userSpaceOnUse">
<stop offset="0.776225" stop-color="#FFC702"/>
<stop offset="0.776225"/>
</linearGradient>
</defs>
</svg>
