<svg width="161" height="61" viewBox="0 0 161 61" fill="none" xmlns="http://www.w3.org/2000/svg">
<path d="M3.95298 60.9091H0V54.2721H3.95298V54.6989H0.504636V57.2093H3.76003V57.636H0.504636V60.4824H3.95298V60.9091Z" fill="white"/>
<path d="M19.3189 54.2721V58.5667C19.3189 59.3293 19.0781 59.9255 18.5965 60.3553C18.115 60.7851 17.4438 60.9999 16.5829 60.9999C15.7452 60.9999 15.0905 60.7851 14.6188 60.3553C14.1505 59.9225 13.9163 59.3203 13.9163 58.5485V54.2721H14.4259V58.5667C14.4259 59.2053 14.6188 59.7031 15.0047 60.0602C15.3906 60.4143 15.9365 60.5914 16.6423 60.5914C17.3316 60.5914 17.866 60.4173 18.2453 60.0693C18.6246 59.7182 18.8142 59.2325 18.8142 58.6121V54.2721H19.3189Z" fill="white"/>
<path d="M30.2073 58.0174V60.9091H29.7027V54.2721H31.4244C32.3215 54.2721 32.9845 54.425 33.4132 54.7306C33.842 55.0333 34.0564 55.4903 34.0564 56.1016C34.0564 56.5465 33.9278 56.9218 33.6705 57.2275C33.4165 57.5331 33.029 57.7526 32.5079 57.8857L34.472 60.9091H33.8684L32.0032 58.0174H30.2073ZM30.2073 57.6179H31.5876C32.1978 57.6179 32.6711 57.4938 33.0076 57.2456C33.344 56.9944 33.5122 56.6252 33.5122 56.1379C33.5122 55.6325 33.3473 55.2648 33.0174 55.0348C32.6876 54.8048 32.15 54.6898 31.4046 54.6898H30.2073V57.6179Z" fill="white"/>
<path d="M50.2188 57.5816C50.2188 58.6348 49.9319 59.4686 49.358 60.0829C48.7841 60.6943 47.9925 60.9999 46.9832 60.9999C45.9772 60.9999 45.1873 60.6943 44.6134 60.0829C44.0395 59.4686 43.7525 58.6317 43.7525 57.5725C43.7525 56.5163 44.0411 55.6855 44.6183 55.0802C45.1988 54.4719 45.9904 54.1677 46.9931 54.1677C48.0024 54.1677 48.7923 54.4734 49.3629 55.0847C49.9335 55.6931 50.2188 56.5253 50.2188 57.5816ZM44.3017 57.5816C44.3017 58.5319 44.5326 59.2673 44.9943 59.7878C45.4561 60.3054 46.1191 60.5641 46.9832 60.5641C47.8539 60.5641 48.5186 60.3069 48.977 59.7924C49.4388 59.2779 49.6696 58.5409 49.6696 57.5816C49.6696 56.6252 49.4388 55.8928 48.977 55.3844C48.5186 54.8729 47.8572 54.6172 46.9931 54.6172C46.1322 54.6172 45.4676 54.8744 44.9993 55.3889C44.5342 55.9034 44.3017 56.6343 44.3017 57.5816Z" fill="white"/>
<path d="M85.5608 60.9091L82.8644 54.7806H82.8248C82.8512 55.1559 82.8644 55.5402 82.8644 55.9337V60.9091H82.3796V54.2721H83.1613L85.724 60.1102H85.7537L88.3165 54.2721H89.0784V60.9091H88.5688V55.8792C88.5688 55.5281 88.5886 55.1649 88.6281 54.7897H88.5886L85.8823 60.9091H85.5608Z" fill="white"/>
<path d="M103.019 58.5667H100.081L99.0713 60.9091H98.5123L101.421 54.2449H101.743L104.593 60.9091H104.024L103.019 58.5667ZM100.264 58.149H102.851L101.867 55.7566C101.784 55.569 101.685 55.3087 101.57 54.9758C101.481 55.2663 101.383 55.5296 101.278 55.7657L100.264 58.149Z" fill="white"/>
<path d="M114.536 58.0174V60.9091H114.032V54.2721H115.753C116.65 54.2721 117.313 54.425 117.742 54.7306C118.171 55.0333 118.385 55.4903 118.385 56.1016C118.385 56.5465 118.257 56.9218 117.999 57.2275C117.745 57.5331 117.358 57.7526 116.837 57.8857L118.801 60.9091H118.197L116.332 58.0174H114.536ZM114.536 57.6179H115.916C116.527 57.6179 117 57.4938 117.336 57.2456C117.673 56.9944 117.841 56.6252 117.841 56.1379C117.841 55.6325 117.676 55.2648 117.346 55.0348C117.016 54.8048 116.479 54.6898 115.733 54.6898H114.536V57.6179Z" fill="white"/>
<path d="M133.331 60.9091H132.712L129.937 57.4045L128.972 58.1853V60.9091H128.467V54.2721H128.972V57.7223L129.773 56.9869L132.608 54.2721H133.251L130.288 57.0777L133.331 60.9091Z" fill="white"/>
<path d="M146.718 60.9091H142.765V54.2721H146.718V54.6989H143.269V57.2093H146.525V57.636H143.269V60.4824H146.718V60.9091Z" fill="white"/>
<path d="M158.65 60.9091H158.14V54.7079H155.79V54.2721H161V54.7079H158.65V60.9091Z" fill="white"/>
<path d="M0 -2.74346e-06H6.60937V25.5802H0V-2.74346e-06Z" fill="#959595"/>
<path d="M30.1762 15.9618C30.1762 16.0078 30.1414 16.5479 30.0718 17.5821H16.3661C16.6444 18.5474 17.1778 19.2943 17.9662 19.823C18.7779 20.3286 19.7867 20.5814 20.9926 20.5814C21.8971 20.5814 22.674 20.455 23.3233 20.2022C23.9959 19.9494 24.6684 19.5357 25.3409 18.9611L28.8195 22.5465C26.9875 24.569 24.3089 25.5802 20.7839 25.5802C18.5808 25.5802 16.6444 25.1665 14.9746 24.3391C13.3049 23.5117 12.0062 22.3626 11.0786 20.8917C10.1741 19.4207 9.72192 17.7545 9.72192 15.8928C9.72192 14.0542 10.1625 12.4109 11.0438 10.963C11.9482 9.49204 13.1889 8.34288 14.7659 7.51549C16.3429 6.68809 18.117 6.2744 20.0882 6.2744C21.9667 6.2744 23.6712 6.66511 25.2018 7.44654C26.7324 8.20498 27.9383 9.31966 28.8195 10.7906C29.724 12.2385 30.1762 13.9623 30.1762 15.9618ZM20.123 10.9285C19.1026 10.9285 18.2445 11.2158 17.5488 11.7903C16.8763 12.3649 16.4473 13.1464 16.2617 14.1346H23.9843C23.7987 13.1464 23.3581 12.3649 22.6624 11.7903C21.9898 11.2158 21.1434 10.9285 20.123 10.9285Z" fill="#959595"/>
<path d="M47.9886 6.26375C49.7029 6.26375 51.2551 6.66761 52.6451 7.47532C54.0583 8.25996 55.1703 9.39076 55.9812 10.8677C56.8152 12.3216 57.2322 14.0178 57.2322 15.9563C57.2322 17.8948 56.8152 19.6026 55.9812 21.0795C55.1703 22.5334 54.0583 23.6642 52.6451 24.4719C51.2551 25.2566 49.7029 25.6489 47.9886 25.6489C45.7877 25.6489 44.0386 24.9912 42.7413 23.6758V32.0529H36.1387V6.57529H42.4285V8.44458C43.6564 6.99069 45.5097 6.26375 47.9886 6.26375ZM46.5986 20.4218C47.7569 20.4218 48.7067 20.0295 49.4481 19.2449C50.1894 18.4372 50.5601 17.341 50.5601 15.9563C50.5601 14.5717 50.1894 13.487 49.4481 12.7024C48.7067 11.8947 47.7569 11.4908 46.5986 11.4908C45.4402 11.4908 44.4904 11.8947 43.749 12.7024C43.0077 13.487 42.637 14.5717 42.637 15.9563C42.637 17.341 43.0077 18.4372 43.749 19.2449C44.4904 20.0295 45.4402 20.4218 46.5986 20.4218Z" fill="white"/>
<path d="M80.5953 15.9909C80.5953 16.0371 80.5606 16.5794 80.4911 17.6179H66.7994C67.0774 18.5872 67.6103 19.3372 68.3979 19.868C69.2088 20.3757 70.2165 20.6295 71.4212 20.6295C72.3247 20.6295 73.1008 20.5026 73.7495 20.2487C74.4213 19.9949 75.0932 19.5795 75.765 19.0026L79.2401 22.6027C77.4099 24.6335 74.7341 25.6489 71.2127 25.6489C69.0119 25.6489 67.0774 25.2335 65.4094 24.4027C63.7414 23.5719 62.444 22.418 61.5174 20.9411C60.6138 19.4641 60.1621 17.791 60.1621 15.9217C60.1621 14.0755 60.6023 12.4255 61.4826 10.9716C62.3861 9.49461 63.6255 8.34073 65.2009 7.50994C66.7763 6.67914 68.5485 6.26375 70.5177 6.26375C72.3942 6.26375 74.097 6.65607 75.626 7.4407C77.1551 8.20226 78.3597 9.32152 79.2401 10.7985C80.1436 12.2524 80.5953 13.9832 80.5953 15.9909ZM70.5525 10.937C69.5331 10.937 68.6759 11.2254 67.9809 11.8024C67.3091 12.3793 66.8805 13.1639 66.6952 14.1563H74.4098C74.2244 13.1639 73.7843 12.3793 73.0893 11.8024C72.4174 11.2254 71.5718 10.937 70.5525 10.937Z" fill="white"/>
<path d="M97.6787 24.5758C97.1227 24.922 96.4393 25.1873 95.6284 25.372C94.8408 25.5566 93.9952 25.6489 93.0917 25.6489C90.636 25.6489 88.7479 25.0489 87.4273 23.8488C86.1068 22.6488 85.4466 20.8603 85.4466 18.4833V12.1831H82.7013V7.26762H85.4466V2.38672H92.0491V7.26762H96.3582V12.1831H92.0491V18.4141C92.0491 19.0833 92.2229 19.6141 92.5704 20.0064C92.9411 20.3757 93.4276 20.5603 94.0299 20.5603C94.7944 20.5603 95.4663 20.3641 96.0454 19.9718L97.6787 24.5758Z" fill="white"/>
<path d="M107.557 9.1369C108.229 8.28303 109.098 7.6484 110.163 7.23301C111.252 6.79453 112.492 6.57529 113.882 6.57529V12.4947C113.279 12.4255 112.781 12.3908 112.387 12.3908C110.974 12.3908 109.862 12.7716 109.051 13.5332C108.264 14.2947 107.87 15.4602 107.87 17.0294V25.6489H101.267V6.88684H107.557V9.1369Z" fill="white"/>
<path d="M126.931 25.6489C124.916 25.6489 123.097 25.2335 121.475 24.4027C119.854 23.5719 118.58 22.418 117.653 20.9411C116.749 19.4641 116.298 17.791 116.298 15.9217C116.298 14.0755 116.749 12.4139 117.653 10.937C118.58 9.45999 119.842 8.31765 121.441 7.50994C123.062 6.67914 124.893 6.26375 126.931 6.26375C128.97 6.26375 130.8 6.67914 132.422 7.50994C134.044 8.31765 135.306 9.45999 136.21 10.937C137.113 12.3908 137.565 14.0524 137.565 15.9217C137.565 17.791 137.113 19.4641 136.21 20.9411C135.306 22.418 134.044 23.5719 132.422 24.4027C130.8 25.2335 128.97 25.6489 126.931 25.6489ZM126.931 20.4218C128.09 20.4218 129.039 20.0295 129.781 19.2449C130.522 18.4372 130.893 17.3294 130.893 15.9217C130.893 14.5371 130.522 13.4524 129.781 12.6678C129.039 11.8831 128.09 11.4908 126.931 11.4908C125.773 11.4908 124.823 11.8831 124.082 12.6678C123.34 13.4524 122.97 14.5371 122.97 15.9217C122.97 17.3294 123.34 18.4372 124.082 19.2449C124.823 20.0295 125.773 20.4218 126.931 20.4218Z" fill="white"/>
<path d="M160.999 6.88684L153.215 25.6489H146.404L138.655 6.88684H145.431L149.949 18.3448L154.71 6.88684H160.999Z" fill="white"/>
<path d="M0 39.7839L161 39.7839V46.4364L0 46.4364L0 39.7839Z" fill="url(#paint0_linear)"/>
<path d="M0 39.7839H36.1392V46.4364H0V39.7839Z" fill="white"/>
<defs>
<linearGradient id="paint0_linear" x1="161" y1="39.7839" x2="0" y2="39.7839" gradientUnits="userSpaceOnUse">
<stop offset="0.776225" stop-color="#959595"/>
<stop offset="0.776225"/>
</linearGradient>
</defs>
</svg>
